<?xml version="1.0" encoding="utf-8"?>
<!-- Icon made by photo3idea_studio from www.flaticon.com  -->
<svg version="1.1" id="Capa_1" xmlns="http://www.w3.org/2000/svg" xmlns:xlink="http://www.w3.org/1999/xlink" x="0px" y="0px"
	 width="1024px" height="1024px" viewBox="0 0 1024 1024" enable-background="new 0 0 1024 1024" xml:space="preserve">
<path fill="#DBDBDB" d="M661.749,424.322l53.127,232.428c1.759,7.688-3.049,15.346-10.735,17.104
	c-1.045,0.238-2.114,0.359-3.188,0.359h-63.301l16.957-249.891H661.749L661.749,424.322z"/>
<path fill="#FFFFF0" d="M620.239,717.053H342.603c-15.772,0-28.56-12.787-28.56-28.559c0-0.68,0.024-1.359,0.073-2.035
	l19.206-269.276l0.442-11.151l327.985,1.335v9.817L648.762,689.85C648.037,705.076,635.483,717.049,620.239,717.053z"/>
<path fill="#F65D5F" d="M447.557,624.236c-8.984-0.023-17.439-4.252-22.848-11.426l-42.839-57.117
	c-9.463-12.617-6.906-30.52,5.712-39.982c4.943-3.707,10.956-5.712,17.136-5.712c8.985,0.016,17.441,4.245,22.847,11.423
	l19.992,26.652l19.991-26.652c9.447-12.596,27.306-15.17,39.925-5.754c12.643,9.432,15.244,27.326,5.812,39.969
	c-0.014,0.018-0.029,0.037-0.041,0.057l-42.841,57.117C465,619.992,456.543,624.221,447.557,624.236L447.557,624.236z"/>
<g>
	<path fill="#80f65d5f" d="M383.299,481.441c-7.887,0-14.28-6.394-14.28-14.279c0-7.887,6.394-14.28,14.28-14.28c7.886,0,14.279,6.394,14.279,14.28
		C397.578,475.048,391.184,481.441,383.299,481.441z"/>
	<path fill="#80f65d5f" d="M440.417,481.441c-7.887,0.017-14.293-6.361-14.312-14.248c-0.018-7.888,6.36-14.295,14.247-14.312
		c7.886-0.018,14.294,6.36,14.312,14.247c0.013,5.336-2.952,10.234-7.686,12.698C444.954,480.889,442.702,481.443,440.417,481.441z"
		/>
	<path fill="#80f65d5f" d="M497.535,481.441c-7.887,0.006-14.284-6.383-14.291-14.27c-0.006-7.887,6.382-14.283,14.27-14.29
		c7.886-0.007,14.284,6.382,14.291,14.27c0.004,6.313-4.137,11.88-10.186,13.689C500.293,481.236,498.918,481.439,497.535,481.441z"
		/>
	<path fill="#80f65d5f" d="M554.653,481.441c-7.887,0-14.279-6.394-14.279-14.279c0-7.887,6.395-14.28,14.279-14.28
		c7.888,0,14.279,6.394,14.279,14.28C568.932,475.048,562.539,481.441,554.653,481.441z"/>
	<path fill="#80f65d5f" d="M611.77,481.441c-7.886,0-14.278-6.394-14.278-14.279c0-7.887,6.393-14.28,14.278-14.28c7.888,0,14.28,6.394,14.28,14.28
		C626.051,475.048,619.656,481.441,611.77,481.441z"/>
	<path fill="#80f65d5f" d="M554.653,545.699c-7.887,0-14.279-6.393-14.279-14.281c0-7.885,6.395-14.279,14.279-14.279
		c7.888,0,14.279,6.395,14.279,14.279C568.932,539.307,562.539,545.699,554.653,545.699z"/>
	<path fill="#80f65d5f" d="M611.77,545.699c-7.886,0-14.278-6.393-14.278-14.281c0-7.885,6.393-14.279,14.278-14.279
		c7.888,0,14.28,6.395,14.28,14.279C626.051,539.307,619.656,545.699,611.77,545.699z"/>
	<path fill="#80f65d5f" d="M554.653,609.957c-7.887,0-14.279-6.393-14.279-14.281c0-7.885,6.395-14.279,14.279-14.279
		c7.888,0,14.279,6.395,14.279,14.279C568.932,603.564,562.539,609.957,554.653,609.957z"/>
	<path fill="#80f65d5f" d="M611.77,609.957c-7.886,0-14.278-6.393-14.278-14.281c0-7.885,6.393-14.279,14.278-14.279
		c7.888,0,14.28,6.395,14.28,14.279C626.05,603.564,619.656,609.957,611.77,609.957z"/>
	<path fill="#80f65d5f" d="M554.653,674.215c-7.887,0-14.279-6.395-14.279-14.279c0-7.889,6.395-14.279,14.279-14.279
		c7.888,0,14.279,6.391,14.279,14.279C568.932,667.82,562.539,674.215,554.653,674.215z"/>
	<path fill="#80f65d5f" d="M611.77,674.215c-7.886,0-14.278-6.395-14.278-14.279c0-7.889,6.393-14.279,14.278-14.279
		c7.888,0,14.28,6.391,14.28,14.279C626.05,667.82,619.656,674.215,611.77,674.215z"/>
	<path fill="#80f65d5f" d="M447.557,674.215c-7.887,0-14.28-6.395-14.28-14.279c0-7.889,6.393-14.279,14.28-14.279c7.886,0,14.28,6.391,14.28,14.279
		C461.837,667.82,455.442,674.215,447.557,674.215z"/>
	<path fill="#80f65d5f" d="M390.439,674.215c-7.887,0-14.28-6.395-14.28-14.279c0-7.889,6.393-14.279,14.28-14.279c7.886,0,14.28,6.391,14.28,14.279
		C404.719,667.82,398.324,674.215,390.439,674.215z"/>
	<path fill="#80f65d5f" d="M497.535,674.215c-7.887,0-14.28-6.395-14.28-14.279c0-7.889,6.394-14.279,14.28-14.279
		c7.886,0,14.279,6.391,14.279,14.279C511.814,667.82,505.421,674.215,497.535,674.215z"/>
</g>
<path fill="#252934" d="M319.042,338.646h356.986c7.887,0,14.28,6.393,14.28,14.28v49.978c0,7.887-6.395,14.278-14.28,14.278
	H319.042c-7.887,0-14.28-6.393-14.28-14.278v-49.978C304.762,345.038,311.155,338.646,319.042,338.646z"/>
<g>
	<path fill="#B9B9B9" d="M369.02,302.947h28.559v71.397H369.02V302.947z"/>
	<path fill="#B9B9B9" d="M611.77,302.947h28.559v71.397H611.77V302.947z"/>
</g>
<g>
	<path fill="#DBDBDB" d="M611.77,302.947h28.559v57.118H611.77V302.947z"/>
	<path fill="#DBDBDB" d="M369.02,302.947h28.559v57.118H369.02V302.947z"/>
</g>
</svg>
